<svg xmlns="http://www.w3.org/2000/svg" width="70" height="70" viewBox="0 0 70 70" fill="none"><path d="M35 5.82285C36.158 5.32164 37.417 5.05859 38.7167 5.05859C38.8455 5.05859 38.9736 5.06283 39.1016 5.06803V2.05078C39.1016 0.918203 38.1834 0 37.0508 0H32.9492C31.8166 0 30.8984 0.918203 30.8984 2.05078V5.06803C31.0264 5.06283 31.1545 5.05859 31.2833 5.05859C32.5829 5.05859 33.842 5.32164 35 5.82285Z" fill="white"></path><path d="M59.5514 65.8984H53.457C53.457 63.6331 51.6208 61.7969 49.3555 61.7969H20.6445C18.3793 61.7969 16.543 63.6331 16.543 65.8984H10.4486C9.34433 65.8984 8.39414 66.747 8.34219 67.8501C8.28668 69.0278 9.22512 70 10.3906 70H59.6094C60.7749 70 61.7133 69.0278 61.6578 67.8501C61.6059 66.747 60.6557 65.8984 59.5514 65.8984Z" fill="white"></path><path d="M33.5502 24.1163C34.3511 24.9172 35.6495 24.9172 36.4504 24.1163L42.4337 18.1331C44.4863 16.0804 44.4863 12.7524 42.4337 10.6997C40.381 8.64698 37.053 8.64698 35.0003 10.6997C32.9476 8.64698 29.6196 8.64698 27.5669 10.6997C25.5142 12.7524 25.5142 16.0804 27.5669 18.1331L33.5502 24.1163Z" fill="#748FB1"></path><path d="M49.3555 41.9727C49.3555 47.6267 53.9554 52.2266 59.6094 52.2266C65.2634 52.2266 69.8633 47.6267 69.8633 41.9727H49.3555Z" fill="#748FB1"></path><path d="M30.8984 27.2512V57.6953H39.1016V27.2512C37.9723 28.264 36.5289 28.8186 35 28.8186C33.4711 28.8186 32.0279 28.264 30.8984 27.2512Z" fill="white"></path><path d="M59.6088 26.6708L64.4089 37.871H68.8712L62.7189 23.5155H67.9486C69.0812 23.5155 69.9994 22.5973 69.9994 21.4647C69.9994 20.3321 69.0812 19.4139 67.9486 19.4139H56.1908C54.6927 19.4139 53.2615 18.6985 52.3627 17.4999C51.2728 16.0467 49.7615 14.976 48.0693 14.4077C48.0706 15.7906 47.7665 17.173 47.1602 18.4464C47.9124 18.7739 48.58 19.2918 49.0815 19.9607C50.7508 22.1864 53.4085 23.5154 56.1908 23.5154H56.4987L50.3464 37.8708H54.8087L59.6088 26.6708Z" fill="white"></path><path d="M20.6445 41.9727C20.6445 47.6267 16.0446 52.2266 10.3906 52.2266C4.73662 52.2266 0.136719 47.6267 0.136719 41.9727H20.6445Z" fill="#748FB1"></path><path d="M10.3906 26.6708L5.59056 37.871H1.1282L7.28054 23.5155H2.05078C0.918203 23.5155 0 22.5973 0 21.4647C0 20.3321 0.918203 19.4139 2.05078 19.4139H13.8086C15.3068 19.4139 16.7379 18.6985 17.6367 17.4999C18.7266 16.0467 20.2379 14.976 21.9301 14.4077C21.9289 15.7906 22.2329 17.173 22.8393 18.4464C22.087 18.7741 21.4196 19.292 20.918 19.9608C19.2486 22.1866 16.5909 23.5155 13.8086 23.5155H13.5007L19.653 37.871H15.1907L10.3906 26.6708Z" fill="white"></path></svg>