<svg xmlns="http://www.w3.org/2000/svg" width="70" height="70" viewBox="0 0 70 70" fill="none"><path d="M41.1758 14.6016H52.2362L48.9197 7.30078L52.2362 0H41.1758V14.6016Z" fill="#748FB1"></path><path d="M37.0508 16.7493V0H32.9492V16.7493C33.6263 16.6808 34.3104 16.6455 35.0001 16.6455C35.6896 16.6455 36.3737 16.6808 37.0508 16.7493Z" fill="#748FB1"></path><path d="M55.0059 55.6388H61.7905C62.7646 55.6388 63.7124 55.7531 64.6218 55.9679V35.228H55.0137L55.0059 55.6388Z" fill="white"></path><path d="M8.20813 55.6389H14.9928L15.0431 35.228H5.37695V55.968C6.28627 55.7532 7.234 55.6389 8.20813 55.6389Z" fill="white"></path><path d="M50.8417 35.228C50.1213 27.1112 43.305 20.7471 35.0009 20.7471C26.6969 20.7471 19.8805 27.1112 19.1602 35.228H50.8417Z" fill="#748FB1"></path><path d="M30.4727 39.3296H39.5301V55.6389H30.4727V39.3296Z" fill="white"></path><path d="M43.6289 39.3296H50.9036V55.6389H43.6289V39.3296Z" fill="white"></path><path d="M19.0957 39.3296H26.3704V55.6389H19.0957V39.3296Z" fill="white"></path><path d="M61.7911 59.7404H8.20887C3.68238 59.7404 0 63.4229 0 67.9493V70H70V67.9493C70 63.4229 66.3175 59.7404 61.7911 59.7404Z" fill="white"></path></svg>