<svg xmlns="http://www.w3.org/2000/svg" width="82" height="62" viewBox="0 0 82 62" fill="none"><path d="M62.9651 8.78573C65.3912 8.78573 67.358 6.81898 67.358 4.39286C67.358 1.96675 65.3912 0 62.9651 0C60.539 0 58.5723 1.96675 58.5723 4.39286C58.5723 6.81898 60.539 8.78573 62.9651 8.78573Z" fill="white"></path><path d="M41.0003 16.1072C43.4264 16.1072 45.3932 14.1404 45.3932 11.7143C45.3932 9.28822 43.4264 7.32147 41.0003 7.32147C38.5742 7.32147 36.6074 9.28822 36.6074 11.7143C36.6074 14.1404 38.5742 16.1072 41.0003 16.1072Z" fill="#748FB1"></path><path d="M20.5003 8.78573C22.9264 8.78573 24.8932 6.81898 24.8932 4.39286C24.8932 1.96675 22.9264 0 20.5003 0C18.0742 0 16.1074 1.96675 16.1074 4.39286C16.1074 6.81898 18.0742 8.78573 20.5003 8.78573Z" fill="white"></path><path d="M24.8934 42.2668V35.1431H21.9648V39.8259L24.8934 42.2668Z" fill="white"></path><path d="M25.0639 11.7144H15.9356L13.373 32.2144H27.6264L25.0639 11.7144Z" fill="white"></path><path d="M61.4997 35.1431H55.6426V43.4866L61.4997 38.6046V35.1431Z" fill="white"></path><path d="M55.6426 11.7144H70.2855V32.2144H55.6426V11.7144Z" fill="white"></path><path d="M76.5676 19.4651C76.7203 19.3128 76.8415 19.1318 76.9242 18.9325C77.0069 18.7333 77.0494 18.5197 77.0494 18.304C77.0494 18.0882 77.0069 17.8746 76.9242 17.6754C76.8415 17.4761 76.7203 17.2951 76.5676 17.1428L73.2129 13.7852V18.4299L74.2481 19.4651C74.5602 19.7641 74.9757 19.9309 75.4079 19.9309C75.84 19.9309 76.2555 19.7641 76.5676 19.4651Z" fill="white"></path><path d="M81.4833 25.2403C81.3189 25.1008 81.1258 24.9994 80.9178 24.9432C80.7097 24.887 80.4918 24.8775 80.2796 24.9152C79.925 25.0019 79.6111 25.2084 79.391 25.4997C79.1709 25.791 79.0581 26.1493 79.0716 26.5142V33.679C79.0715 34.0673 78.9172 34.4397 78.6425 34.7142L65.4639 47.8928L63.3934 45.8223L69.6796 39.5361L69.2506 39.1071C69.0118 38.8416 68.7198 38.6292 68.3937 38.4839C68.0675 38.3386 67.7144 38.2635 67.3573 38.2635C67.0002 38.2635 66.6471 38.3386 66.3209 38.4839C65.9947 38.6292 65.7027 38.8416 65.4639 39.1071L56.5933 46.5076C56.1323 46.906 55.7102 47.3473 55.3325 47.8254C55.3325 47.8328 55.3194 47.8342 55.3135 47.8416C54.5399 48.8057 54.1373 50.015 54.1787 51.2504V61.5004H64.4287V58.5719C64.4289 58.3389 64.4847 58.1094 64.5914 57.9024C64.6981 57.6953 64.8527 57.5167 65.0422 57.3814L74.9994 50.2708L82.0002 36.262V26.3575C82.0003 26.1449 81.9541 25.9349 81.8648 25.7419C81.7756 25.549 81.6454 25.3778 81.4833 25.2403Z" fill="white"></path><path d="M8.26906 22.1855C8.50504 22.2333 8.74861 22.2295 8.98295 22.1741C9.2173 22.1187 9.43684 22.0132 9.62645 21.8648L12.0879 18.8893L12.6736 14.2168L7.56034 19.1822C7.25452 19.4246 7.04044 19.7639 6.9534 20.1443C6.86635 20.5247 6.91155 20.9234 7.08152 21.2747C7.19539 21.5081 7.36194 21.7119 7.56802 21.8699C7.77411 22.028 8.01409 22.136 8.26906 22.1855Z" fill="white"></path><path d="M42.4629 41C42.4629 41.3884 42.6172 41.7608 42.8918 42.0354C43.1664 42.31 43.5388 42.4643 43.9272 42.4643C44.3155 42.4643 44.688 42.31 44.9626 42.0354C45.2372 41.7608 45.3915 41.3884 45.3915 41V30.75H42.4629V41Z" fill="#748FB1"></path><path d="M36.6074 19.0358H45.3932V27.8216H36.6074V19.0358Z" fill="#748FB1"></path><path d="M36.6074 41.0002C36.6074 41.3886 36.7617 41.761 37.0363 42.0356C37.3109 42.3102 37.6834 42.4645 38.0717 42.4645C38.4601 42.4645 38.8325 42.3102 39.1071 42.0356C39.3817 41.761 39.536 41.3886 39.536 41.0002V30.7502H36.6074V41.0002Z" fill="#748FB1"></path><path d="M25.3951 46.4987L16.6343 39.1977C16.4039 38.9072 16.1123 38.6709 15.7803 38.5056C15.4483 38.3404 15.084 38.2502 14.7132 38.2416C14.3425 38.2329 13.9744 38.306 13.635 38.4555C13.2956 38.6051 12.9933 38.8275 12.7496 39.1069L12.3205 39.536L18.6067 45.8222L16.5362 47.8927L3.35761 34.7141C3.08299 34.4395 2.92866 34.0671 2.92858 33.6788V26.5141C2.94206 26.1492 2.82924 25.7909 2.60915 25.4995C2.38906 25.2082 2.0752 25.0018 1.72054 24.9151C1.5098 24.8776 1.29341 24.8868 1.08661 24.942C0.879805 24.9972 0.687622 25.0971 0.52359 25.2346C0.359558 25.3721 0.227667 25.5439 0.137205 25.7379C0.046742 25.9319 -9.22413e-05 26.1433 1.36391e-07 26.3574V36.2618L7.00369 50.2707L16.9608 57.3812C17.1499 57.5169 17.3039 57.6956 17.4101 57.9027C17.5163 58.1097 17.5716 58.339 17.5715 58.5717V61.5003H27.8215V51.2503C27.8314 50.3211 27.6158 49.4034 27.1932 48.5758C26.7707 47.7482 26.1537 47.0355 25.3951 46.4987Z" fill="white"></path><path d="M28.7352 17.4815L33.6771 21.7118V18.2576L28.2695 13.7505L28.7352 17.4815Z" fill="#748FB1"></path><path d="M48.3223 21.3585L52.7151 16.9656V13.7852L48.3223 18.178V21.3585Z" fill="#748FB1"></path></svg>