<svg xmlns="http://www.w3.org/2000/svg" width="70" height="70" viewBox="0 0 70 70" fill="none"><path d="M2.05078 70H39.2382C40.371 70 41.289 69.0819 41.289 67.9492V65.7617C41.289 63.4962 39.4529 61.6601 37.1875 61.6601V59.2083C37.1875 55.9618 34.546 53.3203 31.2995 53.3203H9.98954C6.74301 53.3203 4.10156 55.9618 4.10156 59.2083V61.6601C1.83609 61.6601 0 63.4962 0 65.7617V67.9492C0 69.0814 0.918578 70 2.05078 70Z" fill="#748FB1"></path><path d="M25.6663 45.1641C27.0293 46.973 29.6013 47.3345 31.4101 45.9711C33.2195 44.6082 33.5805 42.0361 32.2176 40.2268L19.8756 23.8488C18.5121 22.0394 15.9406 21.6784 14.1318 23.0413C12.3224 24.4048 11.9608 26.9763 13.3243 28.7857L25.6663 45.1641Z" fill="white"></path><path d="M55.1463 22.9485C56.5098 24.7573 59.0812 25.1189 60.8906 23.7554C62.6995 22.3925 63.061 19.821 61.6976 18.0117L49.3555 1.63373C47.9926 -0.175658 45.4206 -0.537214 43.6117 0.826234C41.8029 2.18968 41.4413 4.76117 42.8048 6.57055L55.1463 22.9485Z" fill="white"></path><path d="M46.1517 34.8635C49.183 32.5793 51.4586 29.743 52.8818 26.7565L38.521 7.69922C35.258 8.24449 31.9046 9.6496 28.8728 11.9343C25.8415 14.2185 23.5658 17.0548 22.1426 20.0407L36.5034 39.0991C39.7665 38.5538 43.1198 37.1482 46.1517 34.8635Z" fill="white"></path><path d="M51.6894 35.3975C50.7345 36.3705 49.7289 37.3035 48.6202 38.1393C47.511 38.9746 46.3366 39.6843 45.1387 40.3343L47.8127 43.8831L54.364 38.9468L51.6894 35.3975Z" fill="white"></path><path d="M56.8325 42.2222L50.2812 47.1585L62.6233 63.5369C63.9868 65.3463 66.5582 65.7073 68.3671 64.3444C70.1765 62.981 70.5375 60.4095 69.1746 58.6001L56.8325 42.2222Z" fill="white"></path></svg>