<svg xmlns="http://www.w3.org/2000/svg" width="72" height="72" viewBox="0 0 72 72" fill="none"><path d="M15.2844 71.4943C18.0983 71.4943 20.3793 69.2132 20.3793 66.3993C20.3793 63.5855 18.0983 61.3044 15.2844 61.3044C12.4705 61.3044 10.1895 63.5855 10.1895 66.3993C10.1895 69.2132 12.4705 71.4943 15.2844 71.4943Z" fill="white"></path><path d="M52.6477 71.4943C55.4615 71.4943 57.7426 69.2132 57.7426 66.3993C57.7426 63.5855 55.4615 61.3044 52.6477 61.3044C49.8338 61.3044 47.5527 63.5855 47.5527 66.3993C47.5527 69.2132 49.8338 71.4943 52.6477 71.4943Z" fill="white"></path><path d="M32.2676 64.7012H44.3256C44.7154 62.7816 45.7568 61.0558 47.2734 59.8162C48.7901 58.5766 50.6886 57.8994 52.6473 57.8994C54.6061 57.8994 56.5046 58.5766 58.0212 59.8162C59.5379 61.0558 60.5793 62.7816 60.9691 64.7012H71.3288V34.1315H32.2676V64.7012Z" fill="white"></path><path d="M15.2848 57.9077C17.2424 57.9073 19.14 58.5833 20.6564 59.8212C22.1729 61.0591 23.215 62.7829 23.6066 64.701H28.8713V39.2263H6.79325L1.69831 47.7178L0 64.701H6.96309C7.3546 62.7829 8.39677 61.0591 9.91322 59.8212C11.4297 58.5833 13.3273 57.9073 15.2848 57.9077ZM5.09494 48.8217L8.71235 42.6229H13.5865V49.4161H4.94209L5.09494 48.8217Z" fill="white"></path><path d="M15.324 0.000211448C17.8104 0.00479671 20.2209 0.857148 22.1575 2.41654C24.0941 3.97593 25.4411 6.14912 25.9759 8.57731C26.5108 11.0055 26.2017 13.5435 25.0995 15.7723C23.9973 18.0011 22.1681 19.7873 19.9137 20.8362L23.4835 31.5699H26.252V33.9983H22.6093C22.3445 34.0122 22.0825 33.9389 21.8632 33.7898C21.644 33.6408 21.4796 33.424 21.3951 33.1727L17.546 21.6133C16.045 21.935 14.4931 21.9368 12.9913 21.6187C11.4896 21.3006 10.0717 20.6696 8.83009 19.767C7.58845 18.8643 6.55093 17.7102 5.7851 16.3798C5.01927 15.0494 4.54232 13.5726 4.38533 12.0456C4.22834 10.5186 4.39483 8.97559 4.87394 7.5172C5.35306 6.05881 6.13406 4.71773 7.16606 3.58132C8.19805 2.44491 9.45789 1.53867 10.8635 0.92165C12.2691 0.304627 13.7889 -0.00933737 15.324 0.000211448ZM8.67006 16.1979C9.15629 14.8149 10.0599 13.6169 11.2562 12.7695C12.4524 11.922 13.8823 11.4668 15.3483 11.4668C16.8143 11.4668 18.2441 11.922 19.4404 12.7695C20.6366 13.6169 21.5402 14.8149 22.0265 16.1979C23.2096 14.698 23.8437 12.8384 23.8235 10.9282C23.8235 8.67397 22.928 6.51208 21.3341 4.91811C19.7401 3.32413 17.5782 2.42865 15.324 2.42865C13.0698 2.42865 10.9079 3.32413 9.3139 4.91811C7.71993 6.51208 6.82445 8.67397 6.82445 10.9282C6.81802 12.8443 7.46953 14.7045 8.67006 16.1979Z" fill="#748FB1"></path><path d="M15.3238 10.928C13.6473 10.928 12.2883 9.56897 12.2883 7.89248C12.2883 6.21599 13.6473 4.85693 15.3238 4.85693C17.0003 4.85693 18.3594 6.21599 18.3594 7.89248C18.3594 9.56897 17.0003 10.928 15.3238 10.928Z" fill="#748FB1"></path></svg>