<svg xmlns="http://www.w3.org/2000/svg" width="70" height="70" viewBox="0 0 70 70" fill="none"><path d="M34.9383 2.4479C34.9515 2.46113 34.973 2.46106 34.9861 2.44783L35.0138 2.4199C38.2404 -0.806632 43.4717 -0.806632 46.6983 2.4199C49.9248 5.64648 49.9248 10.8778 46.6983 14.1043C43.4477 17.3549 40.1699 20.5851 36.9181 23.8368C35.8247 24.9303 34.0518 24.9303 32.9583 23.8369L23.2538 14.1324C20.0273 10.9059 20.0274 5.67441 23.2539 2.4479C26.4805 -0.77866 31.7117 -0.77866 34.9383 2.4479Z" fill="#748FB1"></path><path d="M6.88893 44.7624L1.36803 40.5056C-0.154558 39.3476 -0.448683 37.1129 0.700227 35.6011L5.63411 29.1086C6.80353 27.5698 8.99845 27.2707 10.5367 28.4406L14.8275 31.7619C16.3729 32.9372 18.5502 32.5966 19.9068 31.2075C23.7182 27.3046 28.1853 25.7661 34.0198 29.2113L29.0258 32.4692C26.2247 34.2966 25.4347 38.0495 27.2614 40.8517C29.0871 43.6526 32.8445 44.4288 35.6299 42.5806L36.9694 41.6918L47.4352 50.5051C48.6606 51.5394 48.7789 53.3862 47.6955 54.5686C46.66 55.6987 44.912 55.795 43.7587 54.7854L35.681 47.7148C35.0937 47.2006 34.2085 47.2301 33.6566 47.7822C33.051 48.3881 33.0831 49.3799 33.7267 49.9452L45.2887 60.1011C46.1674 60.873 46.2503 62.2128 45.4735 63.0874C44.7042 63.9526 43.3809 64.0359 42.5094 63.2729L31.1352 53.3169C30.5465 52.8016 29.6592 52.8312 29.106 53.3845C28.5008 53.99 28.5308 54.9805 29.1716 55.5482L38.8153 64.0933C39.6244 64.8101 39.7673 66.0197 39.1475 66.9059C38.421 67.944 36.9541 68.1204 36.0022 67.2846L24.4955 57.1769C23.9027 56.6562 23.0076 56.6852 22.4498 57.2433C21.8465 57.8468 21.8688 58.8321 22.4989 59.4076L27.8092 64.2578C28.6852 65.0579 28.7559 66.4138 27.9678 67.3007C27.1973 68.168 25.8811 68.2751 24.9806 67.5443L9.90265 55.3008C8.04505 53.7924 7.3426 51.2748 8.15075 49.022C8.70445 47.4788 8.19366 45.7547 6.88893 44.7624Z" fill="white"></path><path d="M63.569 44.6987L68.6461 40.9672C70.1406 39.8304 70.4479 37.5552 69.3139 36.0628L64.3796 29.5703C63.2106 28.0314 61.0155 27.7323 59.4773 28.9022L55.5465 31.7622C54.0011 32.9375 51.8287 32.5934 50.4946 31.1826C47.3899 27.8996 44.2138 26.6914 39.5687 28.9022C37.8075 30.0208 35.8497 31.3177 33.9379 32.5841L33.9357 32.5857C32.7732 33.3557 31.6278 34.1145 30.5541 34.8149C29.0477 35.7975 28.623 37.8157 29.6052 39.3226C30.582 40.821 32.592 41.2362 34.0822 40.2475L41.125 35.5744C41.769 35.147 42.6375 35.3229 43.0648 35.9673C43.492 36.6116 43.3161 37.4804 42.672 37.9078L39.3987 40.0797L49.2396 48.3654C51.6809 50.4261 51.9166 54.1054 49.7582 56.4609C49.0409 57.2437 48.1519 57.7776 47.2008 58.0564C49.1841 59.8615 49.3534 62.9344 47.5648 64.9476C46.2073 66.4757 44.1087 66.9559 42.2891 66.3259C42.1585 67.3283 41.7118 68.2789 41.0291 69.0237C42.5295 70.1843 44.6749 70.1171 46.1018 68.8081L60.7065 55.4118C62.4428 53.8192 63.0545 51.3401 62.259 49.122C61.6841 47.5195 62.2145 45.7291 63.569 44.6987Z" fill="white"></path></svg>