<svg xmlns="http://www.w3.org/2000/svg" width="70" height="59" viewBox="0 0 70 59" fill="none"><path d="M21.3757 10.2794C23.3166 8.48397 23.4345 5.45502 21.6391 3.5141C19.8436 1.57319 16.8146 1.45529 14.8737 3.25077C12.9328 5.04625 12.8149 8.07519 14.6104 10.0161C16.4059 11.957 19.4348 12.0749 21.3757 10.2794Z" fill="white"></path><path d="M41.1988 11.5416C40.8703 10.3392 39.6291 9.63103 38.4267 9.95953L28.1569 12.7668L20.3613 13.2787L15.1902 12.9361C13.9295 12.8525 12.6644 13.0031 11.4586 13.3801L1.52235 16.4866C0.525784 16.8297 -0.100708 17.817 0.0133493 18.8648L0.948643 27.459C1.08321 28.696 2.19438 29.5934 3.43656 29.4586C4.67573 29.3238 5.57095 28.2099 5.43611 26.9707L4.69583 20.1682L9.28067 18.5898L8.31064 31.9443L1.34292 55.2508C0.91459 56.6839 1.72899 58.1928 3.16222 58.6213C4.59176 59.0488 6.10336 58.2384 6.53278 56.8021L13.3532 33.9871H15.5879L18.9692 45.5139L19.0376 56.0446C19.0472 57.5345 20.2579 58.7355 21.7454 58.7354H21.7635C23.2592 58.7257 24.4639 57.5052 24.4541 56.0096L24.3832 45.0987C24.3816 44.8466 24.3448 44.596 24.2737 44.354L20.562 31.8424L21.6063 17.7205L28.6799 17.256C28.8312 17.246 28.9809 17.221 29.1271 17.1809L39.6168 14.3137C40.8192 13.985 41.5276 12.7439 41.1988 11.5416Z" fill="white"></path><path d="M69.6124 20.0581C68.9139 19.0257 67.5109 18.7546 66.4785 19.4531L62.255 22.3094L61.0901 17.3032C60.7379 15.79 59.5747 14.5973 58.0707 14.2077L55.9136 13.6487C54.774 14.7874 53.2066 15.4749 51.5162 15.4749C49.9519 15.4749 48.3729 14.8789 47.1801 13.7199L40.7374 21.1925L31.7633 22.2234C30.5249 22.3656 29.6364 23.4848 29.7786 24.7232C29.9211 25.9629 31.0421 26.8505 32.2783 26.7078L42.1284 25.5763C42.6917 25.5116 43.2101 25.2373 43.5803 24.8077L45.8423 22.1841L43.7573 30.1311C43.5677 30.3932 43.9885 29.696 37.133 41.8831C36.8668 42.3569 36.7494 42.8998 36.7959 43.4414L37.8964 56.2588C38.0238 57.7439 39.3305 58.8537 40.8264 58.7255C42.3167 58.5975 43.421 57.2857 43.2931 55.7955L42.264 43.8091L47.3532 34.7501L49.3122 35.2758L48.7334 45.2968C48.7101 45.6999 48.7774 46.1031 48.9301 46.4769L53.2484 57.0507C53.8121 58.4311 55.3909 59.1012 56.7796 58.5339C58.1644 57.9684 58.8285 56.3874 58.2629 55.0027L54.1765 44.9966L54.7294 35.4216L57.8843 23.4442L58.5932 26.4775C58.721 27.0248 59.0275 27.5226 59.4851 27.849C60.2711 28.4093 61.2973 28.4061 62.0672 27.8852L69.0067 23.1919C70.0397 22.4938 70.3107 21.0906 69.6124 20.0581Z" fill="#748FB1"></path><path d="M51.515 13.9271C53.5795 13.9271 55.4691 12.5498 56.0296 10.461C56.6994 7.96596 55.2195 5.4005 52.7245 4.73079C52.3183 4.62179 51.9105 4.56969 51.5091 4.56982C49.4446 4.56982 47.555 5.94712 46.9943 8.03598C46.1967 11.0076 48.4408 13.9271 51.515 13.9271Z" fill="#748FB1"></path></svg>