<svg xmlns="http://www.w3.org/2000/svg" width="62" height="70" viewBox="0 0 62 70" fill="none"><path d="M30.8987 11.3018C29.4099 11.3018 26.6491 15.8375 26.2324 24.1091H35.565C35.1512 15.8375 32.3903 11.3018 30.8987 11.3018Z" fill="#748FB1"></path><path d="M22.0712 24.1096C22.2656 19.9655 23.0516 15.9491 24.3987 12.8633C20.0574 14.9964 16.9327 19.1461 16.2383 24.1096H22.0712Z" fill="#748FB1"></path><path d="M26.2324 28.2368C26.6463 36.5139 29.4099 41.0441 30.8987 41.0441C32.3903 41.0441 35.1539 36.5139 35.565 28.2368H26.2324Z" fill="#748FB1"></path><path d="M39.7319 24.1096H45.5648C44.8704 19.1461 41.7456 14.9964 37.4043 12.8633C38.7486 15.9519 39.5347 19.9655 39.7319 24.1096Z" fill="#748FB1"></path><path d="M55.1873 0H6.61059C2.96088 0 0 2.95532 0 6.60781V63.3866C0 67.0363 2.9581 70 6.61059 70H55.1873C58.837 70 61.8007 67.0391 61.8007 63.3866V6.60781C61.8007 2.9581 58.8398 0 55.1873 0ZM46.0075 60.4785H15.7932V52.4931H46.0075V60.4785ZM30.9003 45.1798C20.4234 45.1798 11.8963 36.6526 11.8963 26.1757C11.8963 15.696 20.4206 7.1661 30.9003 7.1661C41.3828 7.1661 49.9044 15.6932 49.9044 26.1757C49.9044 36.6526 41.38 45.1798 30.9003 45.1798Z" fill="white"></path><path d="M22.07 28.2368H16.2344C16.9315 33.2003 20.0563 37.3555 24.3948 39.4831C23.0477 36.3973 22.2645 32.3837 22.07 28.2368Z" fill="#748FB1"></path><path d="M39.7319 28.2368C39.5375 32.3809 38.7486 36.3973 37.4043 39.4831C41.7456 37.3555 44.8704 33.2003 45.5648 28.2368H39.7319Z" fill="#748FB1"></path></svg>