<svg xmlns="http://www.w3.org/2000/svg" width="70" height="70" viewBox="0 0 70 70" fill="none"><path d="M37.0511 17.6987C41.0111 16.7684 43.9693 13.2088 43.9693 8.96902C43.9693 4.0235 39.9458 0 35.0003 0C30.0547 0 26.0312 4.0235 26.0312 8.96902C26.0312 13.2088 28.9893 16.7684 32.9495 17.6987V22.8263H28.122V26.9279H32.9495V31.7953H37.0511V26.9279H41.8786V22.8263H37.0511V17.6987ZM30.1328 8.96902C30.1328 6.2851 32.3163 4.10156 35.0003 4.10156C37.6842 4.10156 39.8677 6.2851 39.8677 8.96902C39.8677 11.6529 37.6842 13.8363 35.0003 13.8363C32.3163 13.8363 30.1328 11.6528 30.1328 8.96902Z" fill="#748FB1"></path><path d="M55.3457 37.0862C56.0163 37.3736 56.6654 37.7256 57.2814 38.1472L60.622 34.5087V22.847C57.5771 23.7364 55.3457 26.5516 55.3457 29.8799V37.0862Z" fill="white"></path><path d="M64.7237 20.6035V36.1057L47.7501 54.5935L44.7286 51.8196L54.4623 41.2178C51.6902 39.6359 48.0963 40.0121 45.7151 42.346L37.0508 52.4717V70H50.3122V64.4678L70 43.2913V13.5686C66.955 14.4578 64.7237 17.275 64.7237 20.6035Z" fill="white"></path><path d="M32.9492 70.0001V52.4718L24.2849 42.3461C21.9037 40.0122 18.3094 39.6362 15.5377 41.2178L25.2714 51.8198L22.2499 54.5936L5.27625 36.1059V20.6036C5.27625 17.2752 3.04514 14.4579 0 13.5687V43.2914L19.6878 64.4679V70.0001H32.9492Z" fill="white"></path><path d="M9.37695 22.847V34.5087L12.7177 38.1474C13.3336 37.7257 13.9827 37.3737 14.6532 37.0863V29.88C14.6532 26.5516 12.4217 23.7364 9.37695 22.847Z" fill="white"></path></svg>